<mxfile host="Electron" modified="2024-03-19T22:40:56.679Z" agent="Mozilla/5.0 (X11; Linux x86_64) AppleWebKit/537.36 (KHTML, like Gecko) draw.io/23.1.5 Chrome/120.0.6099.109 Electron/28.1.0 Safari/537.36" etag="i989q7eTqjhZ8Q-FXnyR" version="23.1.5" type="device">
  <diagram name="Page-1" id="3X3pygdpsilII0r-ysx2">
    <mxGraphModel dx="928" dy="555" grid="1" gridSize="10" guides="1" tooltips="1" connect="1" arrows="1" fold="1" page="1" pageScale="1" pageWidth="850" pageHeight="1100" math="0" shadow="0">
      <root>
        <mxCell id="0" />
        <mxCell id="1" parent="0" />
        <mxCell id="w177F1aiuArtJO28V5eH-3" style="edgeStyle=orthogonalEdgeStyle;rounded=0;orthogonalLoop=1;jettySize=auto;html=1;exitX=0.5;exitY=1;exitDx=0;exitDy=0;entryX=0.5;entryY=0;entryDx=0;entryDy=0;" edge="1" parent="1" source="w177F1aiuArtJO28V5eH-1" target="w177F1aiuArtJO28V5eH-2">
          <mxGeometry relative="1" as="geometry" />
        </mxCell>
        <mxCell id="w177F1aiuArtJO28V5eH-1" value="MORADAMUS" style="rounded=1;whiteSpace=wrap;html=1;" vertex="1" parent="1">
          <mxGeometry x="365" y="40" width="120" height="60" as="geometry" />
        </mxCell>
        <mxCell id="w177F1aiuArtJO28V5eH-2" value="The &#39;flow&#39; of the game. This will outline how the game will work in regards to how scenes interact/load in the game.&amp;nbsp;" style="rounded=1;whiteSpace=wrap;html=1;fontSize=8;" vertex="1" parent="1">
          <mxGeometry x="365" y="120" width="120" height="80" as="geometry" />
        </mxCell>
        <mxCell id="w177F1aiuArtJO28V5eH-4" value="TIME&lt;br&gt;3x002 to 4x183" style="rounded=1;whiteSpace=wrap;html=1;fontSize=10;" vertex="1" parent="1">
          <mxGeometry x="40" y="200" width="80" height="50" as="geometry" />
        </mxCell>
      </root>
    </mxGraphModel>
  </diagram>
</mxfile>
